# xmcd CD database file
#
# Track frame offsets:
#	182
#	24345
#	46372
#	65690
#	77077
#	90832
#	115297
#	127412
#
# Disc length: 1801 seconds
#
# Revision: 0
# Processed by: cddbd v1.4PL0 Copyright (c) Steve Scherf et al.
# Submitted via: CDex 1.50
#
DISCID=65070708
DTITLE=Various Artist - GRP Radio - Short Cuts '94 (Part I)
DYEAR=1994
DGENRE=Jazz
TTITLE0=Tom Scott - Upbeat 90's and Every Day and every Minute
TTITLE1=Tony Rémy - Mercy Mercy me and Glide
TTITLE2=Robben Ford and The Blue Line - He don't play nothing but the Blues and Trying to do the right Thing (for Anne)
TTITLE3=Yellowjackets - Even Song
TTITLE4=Gary Burton and Rebecca Parris - Emerald Mist (It's another Day)
TTITLE5=The Benoit Freeman Project - Swept away and After the Love has gone
TTITLE6=Rob Wasserman - Fantasy is Reality - Bells of Madness
TTITLE7=Nelson Rangell - Swingin' for the Fence
EXTD=YEAR: 1994
EXTT0=
EXTT1=
EXTT2=
EXTT3=
EXTT4=
EXTT5=
EXTT6=
EXTT7=
PLAYORDER=
